<svg xmlns="http://www.w3.org/2000/svg" xmlns:xlink="http://www.w3.org/1999/xlink" width="500" zoomAndPan="magnify" viewBox="0 0 375 374.999991" height="500" preserveAspectRatio="xMidYMid meet" version="1.0"><defs><clipPath id="580ad766ca"><path d="M 41.96875 42.132812 L 279.335938 42.132812 L 279.335938 268.867188 L 41.96875 268.867188 Z M 41.96875 42.132812 " clip-rule="nonzero"/></clipPath><clipPath id="637219c366"><path d="M 86.96875 42.132812 L 234.03125 42.132812 C 258.882812 42.132812 279.03125 62.277344 279.03125 87.132812 L 279.03125 223.867188 C 279.03125 248.722656 258.882812 268.867188 234.03125 268.867188 L 86.96875 268.867188 C 62.117188 268.867188 41.96875 248.722656 41.96875 223.867188 L 41.96875 87.132812 C 41.96875 62.277344 62.117188 42.132812 86.96875 42.132812 Z M 86.96875 42.132812 " clip-rule="nonzero"/></clipPath><clipPath id="d2e6dc142c"><path d="M 0.96875 0.132812 L 238.238281 0.132812 L 238.238281 226.867188 L 0.96875 226.867188 Z M 0.96875 0.132812 " clip-rule="nonzero"/></clipPath><clipPath id="2a72dca987"><path d="M 45.96875 0.132812 L 193.03125 0.132812 C 217.882812 0.132812 238.03125 20.277344 238.03125 45.132812 L 238.03125 181.867188 C 238.03125 206.722656 217.882812 226.867188 193.03125 226.867188 L 45.96875 226.867188 C 21.117188 226.867188 0.96875 206.722656 0.96875 181.867188 L 0.96875 45.132812 C 0.96875 20.277344 21.117188 0.132812 45.96875 0.132812 Z M 45.96875 0.132812 " clip-rule="nonzero"/></clipPath><clipPath id="7830239595"><rect x="0" width="239" y="0" height="227"/></clipPath><clipPath id="af75127229"><path d="M 41.96875 42.132812 L 278.765625 42.132812 L 278.765625 268.683594 L 41.96875 268.683594 Z M 41.96875 42.132812 " clip-rule="nonzero"/></clipPath><clipPath id="63af7d1838"><path d="M 86.964844 42.132812 L 234.019531 42.132812 C 258.871094 42.132812 279.015625 62.28125 279.015625 87.132812 L 279.015625 223.859375 C 279.015625 248.710938 258.871094 268.855469 234.019531 268.855469 L 86.964844 268.855469 C 62.117188 268.855469 41.96875 248.710938 41.96875 223.859375 L 41.96875 87.132812 C 41.96875 62.28125 62.117188 42.132812 86.964844 42.132812 Z M 86.964844 42.132812 " clip-rule="nonzero"/></clipPath><clipPath id="8ad43fbe67"><path d="M 215 204 L 239 204 L 239 227.078125 L 215 227.078125 Z M 215 204 " clip-rule="nonzero"/></clipPath><clipPath id="23e5168f14"><path d="M 82 83.632812 L 221 83.632812 L 221 210 L 82 210 Z M 82 83.632812 " clip-rule="nonzero"/></clipPath><clipPath id="60f7d47f55"><rect x="0" width="320" y="0" height="309"/></clipPath><clipPath id="290c5f4c02"><path d="M 241.695312 235.074219 L 266.527344 235.074219 L 266.527344 259.90625 L 241.695312 259.90625 Z M 241.695312 235.074219 " clip-rule="nonzero"/></clipPath></defs><g transform="matrix(1, 0, 0, 1, 27, 32)"><g clip-path="url(#60f7d47f55)"><g clip-path="url(#580ad766ca)"><g clip-path="url(#637219c366)"><g transform="matrix(1, 0, 0, 1, 41, 42)"><g clip-path="url(#7830239595)"><g clip-path="url(#d2e6dc142c)"><g clip-path="url(#2a72dca987)"><path fill="#ffffff" d="M 0.96875 0.132812 L 238.335938 0.132812 L 238.335938 226.867188 L 0.96875 226.867188 Z M 0.96875 0.132812 " fill-opacity="1" fill-rule="nonzero"/></g></g></g></g></g></g><g clip-path="url(#af75127229)"><g clip-path="url(#63af7d1838)"><path stroke-linecap="butt" transform="matrix(1.138447, 0, 0, 1.138447, 41.969429, 42.133782)" fill="none" stroke-linejoin="miter" d="M 39.523513 -0.00085189 L 168.69485 -0.00085189 C 190.524209 -0.00085189 208.21896 17.69733 208.21896 39.526689 L 208.21896 159.625906 C 208.21896 181.455265 190.524209 199.150016 168.69485 199.150016 L 39.523513 199.150016 C 17.697586 199.150016 -0.000596226 181.455265 -0.000596226 159.625906 L -0.000596226 39.526689 C -0.000596226 17.69733 17.697586 -0.00085189 39.523513 -0.00085189 Z M 39.523513 -0.00085189 " stroke="#18aefa" stroke-width="17.128599" stroke-opacity="1" stroke-miterlimit="4"/></g></g><g clip-path="url(#8ad43fbe67)"><path fill="#18aefa" d="M 227.308594 227.363281 C 233.628906 227.363281 238.753906 222.238281 238.753906 215.917969 C 238.753906 209.597656 233.628906 204.476562 227.308594 204.476562 C 220.988281 204.476562 215.863281 209.597656 215.863281 215.917969 C 215.863281 222.238281 220.988281 227.363281 227.308594 227.363281 Z M 227.308594 227.363281 " fill-opacity="1" fill-rule="nonzero"/></g><g clip-path="url(#23e5168f14)"><path fill="#18aefa" d="M 129.730469 207.515625 C 119.160156 204.792969 109.390625 199.253906 101.488281 191.496094 C 89.492188 179.722656 82.796875 163.980469 82.632812 147.167969 C 82.304688 112.464844 110.273438 83.964844 144.96875 83.632812 C 150.523438 83.582031 156.042969 84.25 161.378906 85.628906 C 178.765625 90.113281 193.148438 101.671875 201.324219 117.328125 L 179.226562 124.8125 C 173.84375 116.457031 165.492188 110.332031 155.617188 107.785156 C 152.222656 106.914062 148.707031 106.480469 145.1875 106.515625 C 123.105469 106.726562 105.308594 124.867188 105.515625 146.945312 C 105.691406 165.046875 118.050781 180.84375 135.574219 185.359375 C 138.953125 186.226562 142.4375 186.652344 145.945312 186.621094 C 152.3125 186.5625 158.378906 185.058594 163.972656 182.160156 L 164.210938 182.035156 L 164.441406 181.898438 C 172.304688 177.257812 185.652344 172.910156 197.378906 175.925781 C 202.347656 177.207031 206.804688 179.753906 210.613281 183.496094 L 220.085938 192.796875 L 204.054688 209.128906 L 195.367188 200.601562 C 193.394531 198.664062 190.699219 197.652344 187.9375 197.808594 C 183.992188 198.035156 179.003906 199.953125 176.046875 201.628906 L 175.203125 202.109375 C 166.324219 206.851562 156.28125 209.410156 146.164062 209.503906 C 140.585938 209.558594 135.058594 208.886719 129.734375 207.515625 Z M 129.730469 207.515625 " fill-opacity="1" fill-rule="nonzero"/></g></g></g><path fill="#ffffff" d="M 266.597656 247.488281 C 266.597656 248.308594 266.519531 249.121094 266.359375 249.925781 C 266.199219 250.730469 265.960938 251.511719 265.648438 252.269531 C 265.332031 253.027344 264.949219 253.746094 264.492188 254.425781 C 264.039062 255.109375 263.519531 255.738281 262.941406 256.320312 C 262.359375 256.898438 261.730469 257.417969 261.046875 257.871094 C 260.367188 258.328125 259.644531 258.710938 258.890625 259.027344 C 258.132812 259.339844 257.351562 259.578125 256.546875 259.738281 C 255.742188 259.898438 254.929688 259.976562 254.109375 259.976562 C 253.289062 259.976562 252.476562 259.898438 251.675781 259.738281 C 250.871094 259.578125 250.089844 259.339844 249.332031 259.027344 C 248.574219 258.710938 247.855469 258.328125 247.171875 257.871094 C 246.492188 257.417969 245.859375 256.898438 245.28125 256.320312 C 244.699219 255.738281 244.183594 255.109375 243.726562 254.425781 C 243.273438 253.746094 242.886719 253.027344 242.574219 252.269531 C 242.257812 251.511719 242.023438 250.730469 241.863281 249.925781 C 241.703125 249.121094 241.621094 248.308594 241.621094 247.488281 C 241.621094 246.667969 241.703125 245.855469 241.863281 245.054688 C 242.023438 244.25 242.257812 243.46875 242.574219 242.710938 C 242.886719 241.953125 243.273438 241.234375 243.726562 240.550781 C 244.183594 239.871094 244.699219 239.238281 245.28125 238.660156 C 245.859375 238.078125 246.492188 237.5625 247.171875 237.105469 C 247.855469 236.652344 248.574219 236.265625 249.332031 235.953125 C 250.089844 235.636719 250.871094 235.402344 251.675781 235.242188 C 252.476562 235.082031 253.289062 235 254.109375 235 C 254.929688 235 255.742188 235.082031 256.546875 235.242188 C 257.351562 235.402344 258.132812 235.636719 258.890625 235.953125 C 259.644531 236.265625 260.367188 236.652344 261.046875 237.105469 C 261.730469 237.5625 262.359375 238.078125 262.941406 238.660156 C 263.519531 239.238281 264.039062 239.871094 264.492188 240.550781 C 264.949219 241.234375 265.332031 241.953125 265.648438 242.710938 C 265.960938 243.46875 266.199219 244.25 266.359375 245.054688 C 266.519531 245.855469 266.597656 246.667969 266.597656 247.488281 Z M 266.597656 247.488281 " fill-opacity="1" fill-rule="nonzero"/><g clip-path="url(#290c5f4c02)"><path fill="#18aefa" d="M 266.527344 247.488281 C 266.527344 240.632812 260.96875 235.074219 254.109375 235.074219 C 247.253906 235.074219 241.695312 240.632812 241.695312 247.488281 C 241.695312 254.347656 247.253906 259.90625 254.109375 259.90625 C 260.96875 259.90625 266.527344 254.347656 266.527344 247.488281 M 260.308594 241.605469 L 257.792969 244.121094 L 257.136719 244.773438 C 256.902344 244.539062 256.640625 244.335938 256.355469 244.164062 C 256.066406 243.992188 255.765625 243.859375 255.445312 243.761719 C 255.125 243.664062 254.800781 243.605469 254.464844 243.589844 C 254.132812 243.574219 253.800781 243.597656 253.472656 243.664062 C 253.144531 243.730469 252.832031 243.832031 252.53125 243.976562 C 252.226562 244.117188 251.949219 244.296875 251.691406 244.507812 C 251.429688 244.71875 251.203125 244.960938 251.003906 245.226562 C 250.804688 245.496094 250.640625 245.785156 250.515625 246.09375 C 250.386719 246.402344 250.296875 246.71875 250.25 247.050781 C 250.199219 247.382812 250.191406 247.710938 250.222656 248.046875 C 250.257812 248.378906 250.328125 248.699219 250.441406 249.015625 C 250.554688 249.328125 250.703125 249.625 250.890625 249.902344 C 251.074219 250.179688 251.292969 250.433594 251.539062 250.65625 C 251.785156 250.878906 252.058594 251.070312 252.351562 251.230469 C 252.644531 251.386719 252.957031 251.503906 253.277344 251.585938 C 253.601562 251.667969 253.933594 251.707031 254.265625 251.707031 C 254.726562 251.707031 255.171875 251.632812 255.605469 251.480469 C 256.039062 251.328125 256.4375 251.109375 256.796875 250.820312 C 257.15625 250.535156 257.457031 250.199219 257.703125 249.808594 C 257.949219 249.421875 258.121094 249.003906 258.226562 248.554688 L 253.359375 248.554688 L 255.171875 246.738281 L 260.070312 246.738281 C 260.117188 247.039062 260.140625 247.34375 260.140625 247.648438 C 260.140625 250.886719 257.503906 253.523438 254.265625 253.523438 C 253.488281 253.523438 252.738281 253.375 252.019531 253.074219 C 251.300781 252.777344 250.664062 252.351562 250.113281 251.800781 L 249.257812 252.65625 L 246.691406 252.65625 L 249.03125 250.316406 C 248.601562 249.476562 248.390625 248.589844 248.390625 247.648438 C 248.390625 244.40625 251.027344 241.769531 254.265625 241.769531 C 255.207031 241.769531 256.097656 241.984375 256.9375 242.410156 L 257.742188 241.609375 Z M 260.308594 241.605469 " fill-opacity="1" fill-rule="nonzero"/></g></svg>