<svg xmlns="http://www.w3.org/2000/svg" xmlns:xlink="http://www.w3.org/1999/xlink" width="500" zoomAndPan="magnify" viewBox="0 0 375 374.999991" height="500" preserveAspectRatio="xMidYMid meet" version="1.0"><defs><clipPath id="e82e5760d7"><path d="M 37.5 40.03125 L 337.886719 40.03125 L 337.886719 326.96875 L 37.5 326.96875 Z M 37.5 40.03125 " clip-rule="nonzero"/></clipPath><clipPath id="e008f963bc"><path d="M 82.5 40.03125 L 292.5 40.03125 C 304.433594 40.03125 315.878906 44.773438 324.320312 53.210938 C 332.757812 61.652344 337.5 73.097656 337.5 85.03125 L 337.5 281.96875 C 337.5 293.902344 332.757812 305.347656 324.320312 313.789062 C 315.878906 322.226562 304.433594 326.96875 292.5 326.96875 L 82.5 326.96875 C 70.566406 326.96875 59.121094 322.226562 50.679688 313.789062 C 42.242188 305.347656 37.5 293.902344 37.5 281.96875 L 37.5 85.03125 C 37.5 73.097656 42.242188 61.652344 50.679688 53.210938 C 59.121094 44.773438 70.566406 40.03125 82.5 40.03125 Z M 82.5 40.03125 " clip-rule="nonzero"/></clipPath><clipPath id="1c987ee492"><path d="M 0.5 0.03125 L 300.679688 0.03125 L 300.679688 286.96875 L 0.5 286.96875 Z M 0.5 0.03125 " clip-rule="nonzero"/></clipPath><clipPath id="6a5c0a2912"><path d="M 45.5 0.03125 L 255.5 0.03125 C 267.433594 0.03125 278.878906 4.773438 287.320312 13.210938 C 295.757812 21.652344 300.5 33.097656 300.5 45.03125 L 300.5 241.96875 C 300.5 253.902344 295.757812 265.347656 287.320312 273.789062 C 278.878906 282.226562 267.433594 286.96875 255.5 286.96875 L 45.5 286.96875 C 33.566406 286.96875 22.121094 282.226562 13.679688 273.789062 C 5.242188 265.347656 0.5 253.902344 0.5 241.96875 L 0.5 45.03125 C 0.5 33.097656 5.242188 21.652344 13.679688 13.210938 C 22.121094 4.773438 33.566406 0.03125 45.5 0.03125 Z M 45.5 0.03125 " clip-rule="nonzero"/></clipPath><clipPath id="ba341d17a0"><rect x="0" width="301" y="0" height="287"/></clipPath><clipPath id="5ca303ce45"><path d="M 37.5 40.035156 L 337.164062 40.035156 L 337.164062 326.730469 L 37.5 326.730469 Z M 37.5 40.035156 " clip-rule="nonzero"/></clipPath><clipPath id="dacae40fcf"><path d="M 82.496094 40.035156 L 292.484375 40.035156 C 304.417969 40.035156 315.863281 44.777344 324.300781 53.214844 C 332.738281 61.652344 337.480469 73.097656 337.480469 85.03125 L 337.480469 281.957031 C 337.480469 293.890625 332.738281 305.335938 324.300781 313.773438 C 315.863281 322.210938 304.417969 326.953125 292.484375 326.953125 L 82.496094 326.953125 C 70.5625 326.953125 59.117188 322.210938 50.679688 313.773438 C 42.242188 305.335938 37.5 293.890625 37.5 281.957031 L 37.5 85.03125 C 37.5 73.097656 42.242188 61.652344 50.679688 53.214844 C 59.117188 44.777344 70.5625 40.035156 82.496094 40.035156 Z M 82.496094 40.035156 " clip-rule="nonzero"/></clipPath><clipPath id="efeab0716b"><path d="M 257 245 L 286.875 245 L 286.875 274.082031 L 257 274.082031 Z M 257 245 " clip-rule="nonzero"/></clipPath><clipPath id="f00ef8c24d"><path d="M 88.058594 92.554688 L 263 92.554688 L 263 252 L 88.058594 252 Z M 88.058594 92.554688 " clip-rule="nonzero"/></clipPath><clipPath id="44cd30db34"><rect x="0" width="375" y="0" height="371"/></clipPath><clipPath id="852ffd8b08"><path d="M 256.085938 247.707031 L 287.542969 247.707031 L 287.542969 279.164062 L 256.085938 279.164062 Z M 256.085938 247.707031 " clip-rule="nonzero"/></clipPath></defs><g transform="matrix(1, 0, 0, 1, 0, 4)"><g clip-path="url(#44cd30db34)"><g clip-path="url(#e82e5760d7)"><g clip-path="url(#e008f963bc)"><g transform="matrix(1, 0, 0, 1, 37, 40)"><g clip-path="url(#ba341d17a0)"><g clip-path="url(#1c987ee492)"><g clip-path="url(#6a5c0a2912)"><path fill="#ffffff" d="M 0.5 0.03125 L 300.886719 0.03125 L 300.886719 286.96875 L 0.5 286.96875 Z M 0.5 0.03125 " fill-opacity="1" fill-rule="nonzero"/></g></g></g></g></g></g><g clip-path="url(#5ca303ce45)"><g clip-path="url(#dacae40fcf)"><path stroke-linecap="butt" transform="matrix(1.4407, 0, 0, 1.4407, 37.500002, 40.035478)" fill="none" stroke-linejoin="miter" d="M 31.232102 -0.000223432 L 176.986439 -0.000223432 C 185.26963 -0.000223432 193.213902 3.291362 199.07043 9.14789 C 204.926957 15.004418 208.218543 22.948689 208.218543 31.23188 L 208.218543 167.919444 C 208.218543 176.202635 204.926957 184.146907 199.07043 190.003435 C 193.213902 195.859963 185.26963 199.151548 176.986439 199.151548 L 31.232102 199.151548 C 22.948911 199.151548 15.00464 195.859963 9.148112 190.003435 C 3.291584 184.146907 -0.00000141424 176.202635 -0.00000141424 167.919444 L -0.00000141424 31.23188 C -0.00000141424 22.948689 3.291584 15.004418 9.148112 9.14789 C 15.00464 3.291362 22.948911 -0.000223432 31.232102 -0.000223432 Z M 31.232102 -0.000223432 " stroke="#18aefa" stroke-width="13.535085" stroke-opacity="1" stroke-miterlimit="4"/></g></g><g clip-path="url(#efeab0716b)"><path fill="#18aefa" d="M 272.046875 274.441406 C 280.046875 274.441406 286.53125 267.957031 286.53125 259.960938 C 286.53125 251.960938 280.046875 245.476562 272.046875 245.476562 C 264.046875 245.476562 257.5625 251.960938 257.5625 259.960938 C 257.5625 267.957031 264.046875 274.441406 272.046875 274.441406 Z M 272.046875 274.441406 " fill-opacity="1" fill-rule="nonzero"/></g><g clip-path="url(#f00ef8c24d)"><path fill="#18aefa" d="M 148.558594 249.328125 C 135.183594 245.878906 122.824219 238.867188 112.820312 229.054688 C 97.636719 214.15625 89.164062 194.230469 88.960938 172.957031 C 88.542969 129.039062 123.9375 92.972656 167.847656 92.554688 C 174.871094 92.488281 181.859375 93.335938 188.613281 95.078125 C 210.613281 100.753906 228.816406 115.382812 239.164062 135.191406 L 211.199219 144.664062 C 204.382812 134.09375 193.820312 126.339844 181.320312 123.121094 C 177.023438 122.011719 172.578125 121.46875 168.121094 121.511719 C 140.175781 121.777344 117.652344 144.734375 117.917969 172.675781 C 118.140625 195.578125 133.78125 215.570312 155.957031 221.285156 C 160.230469 222.386719 164.640625 222.921875 169.082031 222.886719 C 177.140625 222.808594 184.816406 220.90625 191.894531 217.238281 L 192.199219 217.078125 L 192.484375 216.90625 C 202.4375 211.03125 219.328125 205.53125 234.167969 209.351562 C 240.457031 210.972656 246.097656 214.191406 250.917969 218.929688 L 262.90625 230.699219 L 242.617188 251.367188 L 231.621094 240.574219 C 229.128906 238.125 225.71875 236.84375 222.222656 237.042969 C 217.230469 237.332031 210.917969 239.753906 207.171875 241.878906 L 206.105469 242.484375 C 194.871094 248.484375 182.164062 251.722656 169.355469 251.84375 C 162.300781 251.910156 155.304688 251.0625 148.566406 249.328125 Z M 148.558594 249.328125 " fill-opacity="1" fill-rule="nonzero"/></g></g></g><path fill="#ffffff" d="M 287.632812 263.4375 C 287.632812 264.476562 287.53125 265.503906 287.328125 266.523438 C 287.125 267.539062 286.824219 268.53125 286.429688 269.488281 C 286.03125 270.449219 285.542969 271.359375 284.964844 272.222656 C 284.390625 273.085938 283.734375 273.886719 283 274.621094 C 282.265625 275.355469 281.464844 276.011719 280.601562 276.585938 C 279.738281 277.164062 278.828125 277.652344 277.867188 278.050781 C 276.910156 278.445312 275.917969 278.746094 274.902344 278.949219 C 273.882812 279.152344 272.851562 279.253906 271.816406 279.253906 C 270.777344 279.253906 269.746094 279.152344 268.730469 278.949219 C 267.710938 278.746094 266.722656 278.445312 265.761719 278.050781 C 264.800781 277.652344 263.890625 277.164062 263.027344 276.585938 C 262.164062 276.011719 261.363281 275.355469 260.628906 274.621094 C 259.894531 273.886719 259.238281 273.085938 258.664062 272.222656 C 258.085938 271.359375 257.597656 270.449219 257.203125 269.488281 C 256.804688 268.53125 256.503906 267.539062 256.300781 266.523438 C 256.097656 265.503906 255.996094 264.476562 255.996094 263.4375 C 255.996094 262.398438 256.097656 261.367188 256.300781 260.351562 C 256.503906 259.332031 256.804688 258.34375 257.203125 257.382812 C 257.597656 256.421875 258.085938 255.511719 258.664062 254.648438 C 259.238281 253.785156 259.894531 252.984375 260.628906 252.25 C 261.363281 251.515625 262.164062 250.863281 263.027344 250.285156 C 263.890625 249.707031 264.800781 249.21875 265.761719 248.824219 C 266.722656 248.425781 267.710938 248.125 268.730469 247.921875 C 269.746094 247.71875 270.777344 247.617188 271.816406 247.617188 C 272.851562 247.617188 273.882812 247.71875 274.902344 247.921875 C 275.917969 248.125 276.910156 248.425781 277.867188 248.824219 C 278.828125 249.21875 279.738281 249.707031 280.601562 250.285156 C 281.464844 250.863281 282.265625 251.515625 283 252.25 C 283.734375 252.984375 284.390625 253.785156 284.964844 254.648438 C 285.542969 255.511719 286.03125 256.421875 286.429688 257.382812 C 286.824219 258.34375 287.125 259.332031 287.328125 260.351562 C 287.53125 261.367188 287.632812 262.398438 287.632812 263.4375 Z M 287.632812 263.4375 " fill-opacity="1" fill-rule="nonzero"/><g clip-path="url(#852ffd8b08)"><path fill="#18aefa" d="M 287.542969 263.4375 C 287.542969 254.75 280.503906 247.707031 271.816406 247.707031 C 263.128906 247.707031 256.085938 254.75 256.085938 263.4375 C 256.085938 272.121094 263.128906 279.164062 271.816406 279.164062 C 280.503906 279.164062 287.542969 272.121094 287.542969 263.4375 M 279.664062 255.984375 L 276.480469 259.171875 C 276.480469 259.171875 276.476562 259.171875 276.476562 259.167969 L 275.648438 259.996094 C 275.351562 259.699219 275.019531 259.441406 274.65625 259.222656 C 274.292969 259.003906 273.910156 258.835938 273.503906 258.710938 C 273.101562 258.589844 272.6875 258.519531 272.265625 258.496094 C 271.84375 258.476562 271.421875 258.507812 271.007812 258.589844 C 270.59375 258.671875 270.195312 258.804688 269.8125 258.984375 C 269.429688 259.167969 269.074219 259.390625 268.75 259.660156 C 268.421875 259.925781 268.132812 260.230469 267.878906 260.570312 C 267.628906 260.910156 267.421875 261.277344 267.257812 261.667969 C 267.097656 262.058594 266.984375 262.460938 266.921875 262.878906 C 266.863281 263.300781 266.851562 263.71875 266.894531 264.140625 C 266.933594 264.5625 267.027344 264.96875 267.167969 265.367188 C 267.3125 265.765625 267.5 266.140625 267.734375 266.492188 C 267.96875 266.84375 268.242188 267.164062 268.558594 267.449219 C 268.871094 267.730469 269.214844 267.972656 269.585938 268.171875 C 269.960938 268.371094 270.351562 268.523438 270.761719 268.625 C 271.171875 268.730469 271.589844 268.78125 272.011719 268.78125 C 272.59375 268.777344 273.160156 268.683594 273.710938 268.488281 C 274.257812 268.296875 274.761719 268.019531 275.214844 267.65625 C 275.671875 267.292969 276.054688 266.867188 276.363281 266.375 C 276.675781 265.882812 276.894531 265.351562 277.027344 264.785156 L 270.863281 264.785156 L 273.160156 262.488281 L 279.363281 262.488281 C 279.425781 262.867188 279.453125 263.25 279.453125 263.636719 C 279.453125 267.738281 276.117188 271.078125 272.011719 271.078125 C 271.023438 271.078125 270.078125 270.890625 269.164062 270.511719 C 268.253906 270.132812 267.449219 269.59375 266.753906 268.898438 L 265.667969 269.980469 L 262.417969 269.980469 L 265.382812 267.015625 C 264.839844 265.957031 264.566406 264.828125 264.570312 263.636719 C 264.570312 259.53125 267.910156 256.191406 272.011719 256.191406 C 273.207031 256.191406 274.332031 256.460938 275.394531 257.003906 L 276.414062 255.984375 Z M 279.664062 255.984375 " fill-opacity="1" fill-rule="nonzero"/></g></svg>